<svg xmlns="http://www.w3.org/2000/svg" xmlns:svg="http://www.w3.org/2000/svg" xmlns:xlink="http://www.w3.org/1999/xlink" id="svg2606" width="128" height="128" version="1.0"><defs id="defs2608"><linearGradient id="linearGradient10207"><stop id="stop10209" offset="0" stop-color="#a2a2a2" stop-opacity="1"/><stop id="stop10211" offset="1" stop-color="#fff" stop-opacity="1"/></linearGradient><linearGradient id="XMLID_12_" x1="96" x2="88" y1="104" y2="96" gradientUnits="userSpaceOnUse"><stop id="stop83" offset="0" stop-color="#888A85"/><stop id="stop85" offset=".007" stop-color="#8C8E89"/><stop id="stop87" offset=".067" stop-color="#ABACA9"/><stop id="stop89" offset=".135" stop-color="#C5C6C4"/><stop id="stop91" offset=".265" stop-color="#DBDBDA"/><stop id="stop93" offset=".376" stop-color="#EBEBEB"/><stop id="stop95" offset=".487" stop-color="#F7F7F6"/><stop id="stop97" offset=".632" stop-color="#FDFDFD"/><stop id="stop99" offset="1" stop-color="#FFF"/></linearGradient><radialGradient id="XMLID_8_" cx="102" cy="112.305" r="139.559" gradientUnits="userSpaceOnUse"><stop id="stop41" offset="0" stop-color="#b7b8b9" stop-opacity="1"/><stop id="stop47" offset=".189" stop-color="#ECECEC"/><stop id="stop49" offset=".257" stop-color="#FAFAFA"/><stop id="stop51" offset=".301" stop-color="#FFF"/><stop id="stop53" offset=".531" stop-color="#FAFAFA"/><stop id="stop55" offset=".845" stop-color="#EBECEC"/><stop id="stop57" offset="1" stop-color="#E1E2E3"/></radialGradient><filter id="filter6697" width="1.384" height="1.384" x="-.192" y="-.192"><feGaussianBlur id="feGaussianBlur6699" stdDeviation="1.945"/></filter><clipPath id="clipPath7084" clipPathUnits="userSpaceOnUse"><path id="path7086" fill="#000" fill-opacity="1" fill-rule="evenodd" stroke="none" stroke-linecap="butt" stroke-linejoin="miter" stroke-opacity="1" stroke-width="1" d="M 72,88 L 40,120 L 32,120 L 32,80 L 72,80 L 72,88 z"/></clipPath><radialGradient id="radialGradient9437" cx="102" cy="112.305" r="139.559" gradientTransform="matrix(1,0,0,0.9996653,2e-6,3.0160848e-3)" gradientUnits="userSpaceOnUse" xlink:href="#XMLID_8_"/><linearGradient id="linearGradient10213" x1="98.617" x2="91.229" y1="106.414" y2="99.255" gradientUnits="userSpaceOnUse" xlink:href="#linearGradient10207"/><filter id="filter2770"><feGaussianBlur id="feGaussianBlur2772" stdDeviation="2.079"/></filter><linearGradient id="linearGradient3682" x1="32.254" x2="98.358" y1="57.967" y2="57.967" gradientTransform="translate(19.439951,41.709408)" gradientUnits="userSpaceOnUse" xlink:href="#linearGradient3672"/><linearGradient id="linearGradient3672"><stop id="stop3674" offset="0" stop-color="#2b2b2b" stop-opacity="1"/><stop id="stop3685" offset=".5" stop-color="#242424" stop-opacity="1"/><stop id="stop3689" offset=".75" stop-color="#363636" stop-opacity="1"/><stop id="stop3676" offset="1" stop-color="#2b2b2b" stop-opacity="1"/></linearGradient><linearGradient id="linearGradient3206" x1="32.254" x2="98.358" y1="57.967" y2="57.967" gradientTransform="translate(19.439951,41.709408)" gradientUnits="userSpaceOnUse" xlink:href="#linearGradient3672"/><linearGradient id="linearGradient3208"><stop id="stop3210" offset="0" stop-color="#2b2b2b" stop-opacity="1"/><stop id="stop3212" offset=".5" stop-color="#242424" stop-opacity="1"/><stop id="stop3214" offset=".75" stop-color="#363636" stop-opacity="1"/><stop id="stop3216" offset="1" stop-color="#2b2b2b" stop-opacity="1"/></linearGradient><linearGradient id="linearGradient3220" x1="32.254" x2="98.358" y1="57.967" y2="57.967" gradientTransform="translate(13.290789,-32.405895)" gradientUnits="userSpaceOnUse" xlink:href="#linearGradient3672"/></defs><metadata id="metadata2611"/><g id="layer1"><path id="path7865" fill="#000" fill-opacity="1" d="M 16,8 L 16,120 C 16,120 79.15625,120 79.15625,120 L 79.1875,120 C 79.187503,120 91.09375,110.09375 96.59375,104.59375 C 102.09375,99.09375 112,87.1875 112,87.1875 L 112,87.15625 L 112,8 L 16,8 z" filter="url(#filter2770)" opacity=".5" transform="matrix(1.0416667,0,0,1.0267857,-2.6666667,-1.2142891)"/><path id="path34" fill="#fff" fill-opacity="1" d="M 16.000001,8 L 16,120 C 16,120 79.146418,120 79.146418,120 L 112,87.14642 L 112,8 L 16.000001,8 z"/><path id="path59" fill="url(#radialGradient9437)" fill-opacity="1" d="M 18.000002,9.0000034 C 17.449002,9.0000034 17.000002,9.4488534 17.000002,9.9996684 L 17.000002,117.96352 C 17.000002,118.51533 17.449002,118.96318 18.000002,118.96318 L 77.171999,118.96318 C 77.434999,118.96318 79.934679,119.08131 80.12068,118.89438 L 110.707,88.094202 C 110.894,87.907264 111,85.40942 111,85.146508 L 111,9.9996684 C 111,9.4488534 110.552,9.0000034 110,9.0000034 L 18.000002,9.0000034 z"/><path id="path5540" fill="#000" fill-opacity="1" d="M 41.879531,115.98249 C 41.879531,115.98249 66.18914,91.672876 66.18914,91.672876 C 66.18914,91.672876 56.836,94.586 46.586,94.586 C 46.586,104.836 41.879531,115.98249 41.879531,115.98249 z" clip-path="url(#clipPath7084)" filter="url(#filter6697)" opacity=".4" transform="translate(40,0)"/><path id="path14523" fill="url(#linearGradient10213)" fill-opacity="1" d="M 79.172,120 C 79.172,120 91.086,110.086 96.586,104.586 C 102.086,99.086 112,87.172 112,87.172 C 112,87.172 98.25,96 88,96 C 88,106.25 79.172,120 79.172,120 z"/><path id="path2998" fill="#85b916" fill-opacity="1" stroke="none" d="M 46.32922,73.72364 64,56 69.68233,61.67325 57.63116,73.72364 64.02644,80.075898 82.367138,61.70046 66.85023,46.46526 c -1.66849,-1.2591 -3.37569,-2.1466 -5.39154,-0.071 L 37.357126,69.93992 c -2.45686,2.22921 -2.144307,4.45841 -0.669154,6.68762 L 61.1083,101.18832 c 2.68167,2.23786 3.70277,1.17792 5.93449,-0.0907 L 92.077838,75.87001 c 0.64241,-1.61454 1.84292,-2.71438 -0.44782,-4.9686 L 88.066058,67.40768 63.99093,91.404278 46.32922,73.72365 z"/><text id="text2896" x="44" y="36" fill="url(#linearGradient3220)" fill-opacity="1" stroke="none" font-family="FreeSerif" font-size="72" font-stretch="normal" font-style="normal" font-variant="normal" font-weight="normal" xml:space="preserve" style="-inkscape-font-specification:FreeSerif"><tspan id="tspan2898" x="44" y="36" fill="url(#linearGradient3220)" fill-opacity="1" font-family="Sans" font-size="28" font-stretch="normal" font-style="normal" font-variant="normal" font-weight="normal" style="-inkscape-font-specification:Sans">PUB</tspan></text><text id="text3772" x="28" y="36" fill="#000" fill-opacity="1" stroke="none" font-family="FreeSans" font-size="28" font-stretch="normal" font-style="normal" font-variant="normal" font-weight="normal" xml:space="preserve" style="-inkscape-font-specification:FreeSans"><tspan id="tspan3774" x="28" y="36" fill="#85b916" fill-opacity="1" font-size="28">e</tspan></text></g></svg>