<svg xmlns="http://www.w3.org/2000/svg" xmlns:cc="http://web.resource.org/cc/" xmlns:svg="http://www.w3.org/2000/svg" xmlns:xlink="http://www.w3.org/1999/xlink" id="svg2606" width="128" height="128" version="1.0"><defs id="defs2608"><linearGradient id="XMLID_6_" x1="95.695" x2="43.148" y1="67.52" y2="67.52" gradientUnits="userSpaceOnUse"><stop id="stop4013" offset="0" stop-color="#EDE0FF"/><stop id="stop4015" offset=".489" stop-color="#8000FF"/></linearGradient><linearGradient id="linearGradient3337" x1="20.894" x2="70.038" y1="76.07" y2="8.739" gradientTransform="matrix(1,0,0,-1,21,106.496)" gradientUnits="userSpaceOnUse" xlink:href="#XMLID_6_"/><linearGradient id="linearGradient10207"><stop id="stop10209" offset="0" stop-color="#a2a2a2" stop-opacity="1"/><stop id="stop10211" offset="1" stop-color="#fff" stop-opacity="1"/></linearGradient><linearGradient id="XMLID_12_" x1="96" x2="88" y1="104" y2="96" gradientUnits="userSpaceOnUse"><stop id="stop83" offset="0" stop-color="#888A85"/><stop id="stop85" offset=".007" stop-color="#8C8E89"/><stop id="stop87" offset=".067" stop-color="#ABACA9"/><stop id="stop89" offset=".135" stop-color="#C5C6C4"/><stop id="stop91" offset=".265" stop-color="#DBDBDA"/><stop id="stop93" offset=".376" stop-color="#EBEBEB"/><stop id="stop95" offset=".487" stop-color="#F7F7F6"/><stop id="stop97" offset=".632" stop-color="#FDFDFD"/><stop id="stop99" offset="1" stop-color="#FFF"/></linearGradient><radialGradient id="XMLID_8_" cx="102" cy="112.305" r="139.559" gradientUnits="userSpaceOnUse"><stop id="stop41" offset="0" stop-color="#b7b8b9" stop-opacity="1"/><stop id="stop47" offset=".189" stop-color="#ECECEC"/><stop id="stop49" offset=".257" stop-color="#FAFAFA"/><stop id="stop51" offset=".301" stop-color="#FFF"/><stop id="stop53" offset=".531" stop-color="#FAFAFA"/><stop id="stop55" offset=".845" stop-color="#EBECEC"/><stop id="stop57" offset="1" stop-color="#E1E2E3"/></radialGradient><filter id="filter6697" width="1.384" height="1.384" x="-.192" y="-.192"><feGaussianBlur id="feGaussianBlur6699" stdDeviation="1.945"/></filter><clipPath id="clipPath7084" clipPathUnits="userSpaceOnUse"><path id="path7086" fill="#000" fill-opacity="1" fill-rule="evenodd" stroke="none" stroke-linecap="butt" stroke-linejoin="miter" stroke-opacity="1" stroke-width="1" d="M 72,88 L 40,120 L 32,120 L 32,80 L 72,80 L 72,88 z"/></clipPath><radialGradient id="radialGradient9437" cx="102" cy="112.305" r="139.559" gradientTransform="matrix(1,0,0,0.9996653,2e-6,3.0160848e-3)" gradientUnits="userSpaceOnUse" xlink:href="#XMLID_8_"/><linearGradient id="linearGradient10213" x1="98.617" x2="91.229" y1="106.414" y2="99.255" gradientUnits="userSpaceOnUse" xlink:href="#linearGradient10207"/><filter id="filter2770"><feGaussianBlur id="feGaussianBlur2772" stdDeviation="2.079"/></filter></defs><metadata id="metadata2611"/><g id="layer1"><path id="path7865" fill="#000" fill-opacity="1" d="M 16,8 L 16,120 C 16,120 79.15625,120 79.15625,120 L 79.1875,120 C 79.187503,120 91.09375,110.09375 96.59375,104.59375 C 102.09375,99.09375 112,87.1875 112,87.1875 L 112,87.15625 L 112,8 L 16,8 z" filter="url(#filter2770)" opacity=".5" transform="matrix(1.0416667,0,0,1.0267857,-2.6666667,-1.2142891)"/><path id="path34" fill="#fff" fill-opacity="1" d="M 16.000001,8 L 16,120 C 16,120 79.146418,120 79.146418,120 L 112,87.14642 L 112,8 L 16.000001,8 z"/><path id="path59" fill="url(#radialGradient9437)" fill-opacity="1" d="M 18.000002,9.0000034 C 17.449002,9.0000034 17.000002,9.4488534 17.000002,9.9996684 L 17.000002,117.96352 C 17.000002,118.51533 17.449002,118.96318 18.000002,118.96318 L 77.171999,118.96318 C 77.434999,118.96318 79.934679,119.08131 80.12068,118.89438 L 110.707,88.094202 C 110.894,87.907264 111,85.40942 111,85.146508 L 111,9.9996684 C 111,9.4488534 110.552,9.0000034 110,9.0000034 L 18.000002,9.0000034 z"/><path id="path5540" fill="#000" fill-opacity="1" d="M 41.879531,115.98249 C 41.879531,115.98249 66.18914,91.672876 66.18914,91.672876 C 66.18914,91.672876 56.836,94.586 46.586,94.586 C 46.586,104.836 41.879531,115.98249 41.879531,115.98249 z" clip-path="url(#clipPath7084)" filter="url(#filter6697)" opacity=".4" transform="translate(40,0)"/><path id="path14523" fill="url(#linearGradient10213)" fill-opacity="1" d="M 79.172,120 C 79.172,120 91.086,110.086 96.586,104.586 C 102.086,99.086 112,87.172 112,87.172 C 112,87.172 98.25,96 88,96 C 88,106.25 79.172,120 79.172,120 z"/><g id="g2213"><path id="path38094" fill="url(#linearGradient3337)" fill-opacity="1" stroke="none" stroke-width="3" d="M 45.777,102 C 45.777,102 93.282204,101.48465 53.782204,61.984654 C 14.282204,22.484654 89.584097,13.606343 101.7411,45.939344" opacity=".2"/><path id="path5278" fill="none" fill-opacity="1" stroke="#5a00b3" stroke-width="3" d="M 45.777,102 C 45.777,102 93.458981,101.48465 53.958981,61.984654 C 14.458981,22.484654 89.760874,14.667003 101.91787,47.000004" opacity=".8"/><path id="path38096" fill="none" stroke="#ff00bf" stroke-width=".5" d="M 45.777,102 C 45.777,102 93.33766,101.36333 53.83766,61.863334 C 14.33766,22.363334 89.639553,14.667003 101.79655,47.000004"/><path id="polyline38098" fill="none" stroke="#ff00bf" stroke-width=".6" d="M -0.8232233,9.7958932 L 26.978437,37.710107 L 50.711883,61.444553" transform="translate(27,24.330004)"/><circle id="circle38100" cx="1" cy="12.503" r="1.5" fill="#e85290" transform="matrix(1.3333333,0,0,1.3333333,24.666667,17.329333)"/><circle id="circle38102" cx="49.828" cy="61.091" r="1.5" fill="#e85290" transform="matrix(1.3333333,0,0,1.3333333,11.562669,4.5453359)"/><g id="g38104" fill="#e85290" transform="matrix(1.3333333,0,0,1.3333333,19.678669,12.66267)"><rect id="rect38106" width="3" height="3" x="24.241" y="35.503" fill="#e85290"/></g><g id="g38108" fill="#e85290" transform="matrix(1.3333333,0,0,1.3333333,5.4093346,15.773334)"><rect id="rect38110" width="3" height="3" x="70.943" y="21.17" fill="#e85290"/></g><g id="g38112" fill="#e85290" transform="matrix(1.3333333,0,0,1.3333333,20.741,-1.5599949)"><rect id="rect38114" width="3" height="3" x="17.444" y="76.17" fill="#e85290"/></g></g></g></svg>