<svg xmlns="http://www.w3.org/2000/svg" xmlns:svg="http://www.w3.org/2000/svg" id="svg2" width="128" height="128" version="1.1" viewBox="0 0 128 128"><defs id="defs4"><linearGradient id="SVGID_1_" x1="297.639" x2="297.639" y1="323" y2="515.167" gradientUnits="userSpaceOnUse"><stop id="stop8" offset="0" stop-color="#F26822"/><stop id="stop10" offset="1" stop-color="#CB2026"/></linearGradient></defs><metadata id="metadata7"/><g id="layer1" transform="translate(0,-924.36216)"><g id="g4156" transform="matrix(0.63809107,0,0,0.63959391,-1.7628079,925.36153)"><polygon id="polygon12" fill="url(#SVGID_1_)" points="249.988 435.707 265.333 435.707 271.013 449.962 277.817 447.251 277.817 472.112 252.085 472.112 297.64 517.668 343.193 472.112 317.463 472.112 317.463 448.454 322.585 450.657 329.016 435.707 345.29 435.707 345.29 420.363 359.546 414.683 353.521 399.564 365.028 388.057 354.178 377.206 360.241 363.11 345.29 356.679 345.29 340.406 329.945 340.406 324.265 326.151 309.147 332.176 297.64 320.668 286.79 331.518 272.693 325.455 266.263 340.406 249.988 340.406 249.988 355.75 235.734 361.43 241.759 376.549 230.251 388.057 241.101 398.907 235.039 413.003 249.988 419.433" transform="translate(-194.57771,-320.66701)"/><g id="g14" transform="translate(-194.57771,-320.66701)"><path id="path16" fill="#993720" d="m 273.311,419.168 0,-56.752 17.935,0 9.01,17.43 c 3.115,5.641 6.399,13.22 8.926,19.873 l 0.252,0 c -0.842,-7.494 -1.178,-15.41 -1.178,-23.83 l 0,-13.472 13.893,0 0,56.752 -15.999,0 -9.684,-18.861 c -3.116,-5.978 -6.82,-13.641 -9.515,-20.461 l -0.336,0 c 0.42,7.663 0.589,16.167 0.589,25.345 l 0,13.978 -13.893,0 z"/></g><g id="g18" transform="translate(-194.57771,-320.66701)"><path id="path20" fill="#f0efef" d="m 273.311,416.873 0,-56.752 17.935,0 9.01,17.43 c 3.115,5.641 6.399,13.22 8.926,19.873 l 0.252,0 c -0.842,-7.494 -1.178,-15.41 -1.178,-23.83 l 0,-13.472 13.893,0 0,56.752 -15.999,0 -9.684,-18.861 c -3.116,-5.978 -6.82,-13.641 -9.515,-20.461 l -0.336,0 c 0.42,7.663 0.589,16.167 0.589,25.345 l 0,13.978 -13.893,0 z"/></g></g></g></svg>